<?xml version="1.0" encoding="utf-8"?>
<!-- Generator: Adobe Illustrator 19.2.1, SVG Export Plug-In . SVG Version: 6.00 Build 0)  -->
<svg version="1.1" id="Ebene_1" xmlns="http://www.w3.org/2000/svg" xmlns:xlink="http://www.w3.org/1999/xlink" x="0px" y="0px"
	 viewBox="0 0 125 32" style="enable-background:new 0 0 125 32;" xml:space="preserve">
<style type="text/css">
	.st0{fill:#91b821;}
	.st1{fill:none;stroke:#FFFFFF;stroke-width:2;stroke-linecap:round;stroke-linejoin:round;}
	
		.st2{clip-path:url(#SVGID_2_);fill:none;stroke:#FFFFFF;stroke-width:2;stroke-linecap:round;stroke-linejoin:round;stroke-dasharray:0,3.857;}
	
		.st3{clip-path:url(#SVGID_2_);fill:none;stroke:#FFFFFF;stroke-width:2;stroke-linecap:round;stroke-linejoin:round;stroke-dasharray:0,4.043;}
	.st4{clip-path:url(#SVGID_2_);fill:none;stroke:#FFFFFF;stroke-width:2;stroke-linecap:round;stroke-linejoin:round;}
	.st5{fill:#21B7D0;}
	.st6{fill:#B7FF00;}
	.st7{fill:#B8FF00;}
	.st8{fill:none;stroke:#FFFFFF;stroke-width:2;stroke-linecap:round;stroke-linejoin:round;stroke-dasharray:0,4.043;}
</style>
<g>
	<g>
		<line class="st8" x1="6.8" y1="16" x2="93.7" y2="16"/>
		<path class="st1" d="M95.7,16L95.7,16 M2.7,16L2.7,16"/>
	</g>
	<path class="st0" d="M91.7,15L91.7,15c0.5,0,1,0.5,1,1l0,0c0,0.6-0.5,1-1,1l0,0c-0.6,0-1-0.4-1-1C90.7,15.4,91.1,15,91.7,15z
		 M87.6,15L87.6,15c0.6,0,1,0.5,1,1l0,0c0,0.6-0.4,1-1,1l0,0c-0.5,0-1-0.4-1-1C86.6,15.4,87.1,15,87.6,15z M83.6,15L83.6,15
		c0.6,0,1,0.5,1,1l0,0c0,0.6-0.4,1-1,1l0,0c-0.5,0-1-0.4-1-1C82.6,15.4,83,15,83.6,15z M79.5,15L79.5,15c0.6,0,1,0.5,1,1l0,0
		c0,0.6-0.4,1-1,1l0,0c-0.6,0-1-0.4-1-1C78.5,15.4,79,15,79.5,15z M75.5,15L75.5,15c0.6,0,1,0.5,1,1l0,0c0,0.6-0.4,1-1,1l0,0
		c-0.5,0-1-0.4-1-1C74.5,15.4,74.9,15,75.5,15z M71.4,15L71.4,15c0.6,0,1,0.5,1,1l0,0c0,0.6-0.4,1-1,1l0,0c-0.5,0-1-0.4-1-1
		C70.4,15.4,70.9,15,71.4,15z M67.4,15L67.4,15c0.6,0,1,0.5,1,1l0,0c0,0.6-0.4,1-1,1l0,0c-0.5,0-1-0.4-1-1
		C66.4,15.4,66.8,15,67.4,15z M63.4,15L63.4,15c0.6,0,1,0.5,1,1l0,0c0,0.6-0.4,1-1,1l0,0c-0.6,0-1-0.4-1-1
		C62.4,15.4,62.8,15,63.4,15z M59.3,15L59.3,15c0.5,0,1,0.5,1,1l0,0c0,0.6-0.5,1-1,1l0,0c-0.5,0-1-0.4-1-1
		C58.3,15.4,58.8,15,59.3,15z M55.3,15L55.3,15c0.5,0,1,0.5,1,1l0,0c0,0.6-0.5,1-1,1l0,0c-0.5,0-1-0.4-1-1
		C54.3,15.4,54.7,15,55.3,15z M51.2,15L51.2,15c0.5,0,1,0.5,1,1l0,0c0,0.6-0.5,1-1,1l0,0c-0.6,0-1-0.4-1-1
		C50.2,15.4,50.7,15,51.2,15z M47.2,15L47.2,15c0.6,0,1,0.5,1,1l0,0c0,0.6-0.4,1-1,1l0,0c-0.5,0-1-0.4-1-1
		C46.2,15.4,46.6,15,47.2,15z M43.1,15L43.1,15c0.5,0,1,0.5,1,1l0,0c0,0.6-0.5,1-1,1l0,0c-0.5,0-1-0.4-1-1
		C42.1,15.4,42.6,15,43.1,15z M39.1,15L39.1,15c0.5,0,1,0.5,1,1l0,0c0,0.6-0.5,1-1,1l0,0c-0.6,0-1-0.4-1-1
		C38.1,15.4,38.5,15,39.1,15z M35.1,15L35.1,15c0.5,0,1,0.5,1,1l0,0c0,0.6-0.5,1-1,1l0,0c-0.6,0-1-0.4-1-1C34,15.4,34.5,15,35.1,15z
		 M31,15L31,15c0.5,0,1,0.5,1,1l0,0c0,0.6-0.5,1-1,1l0,0c-0.5,0-1-0.4-1-1C30,15.4,30.5,15,31,15z M27,15L27,15c0.5,0,1,0.5,1,1l0,0
		c0,0.6-0.5,1-1,1l0,0c-0.5,0-1-0.4-1-1C26,15.4,26.4,15,27,15z M22.9,15L22.9,15c0.5,0,1,0.5,1,1l0,0c0,0.6-0.5,1-1,1l0,0
		c-0.6,0-1-0.4-1-1C21.9,15.4,22.4,15,22.9,15z M18.9,15L18.9,15c0.5,0,1,0.5,1,1l0,0c0,0.6-0.5,1-1,1l0,0c-0.5,0-1-0.4-1-1
		C17.9,15.4,18.3,15,18.9,15z M14.8,15L14.8,15c0.5,0,1,0.5,1,1l0,0c0,0.6-0.5,1-1,1l0,0c-0.5,0-1-0.4-1-1
		C13.8,15.4,14.3,15,14.8,15z M10.8,15L10.8,15c0.5,0,1,0.5,1,1l0,0c0,0.6-0.5,1-1,1l0,0c-0.6,0-1-0.4-1-1C9.8,15.4,10.2,15,10.8,15
		z M6.7,15L6.7,15c0.6,0,1,0.5,1,1l0,0c0,0.6-0.4,1-1,1l0,0c-0.5,0-1-0.4-1-1C5.7,15.4,6.2,15,6.7,15z M2.7,15L2.7,15
		c0.3,0,0.5,0.1,0.7,0.3l0,0c0.4,0.4,0.4,1,0,1.4l0,0c-0.4,0.4-1,0.4-1.4,0l0,0c-0.4-0.4-0.4-1,0-1.4C2.2,15.1,2.5,15,2.7,15z
		 M95.7,15L95.7,15c0.5,0,1,0.5,1,1l0,0c0,0.6-0.5,1-1,1l0,0c-0.6,0-1-0.4-1-1C94.7,15.4,95.1,15,95.7,15z"/>
	<path class="st0" d="M124,15L124,15c0.5,0,1,0.5,1,1l0,0c0,0.6-0.5,1-1,1l0,0c-0.5,0-1-0.4-1-1C123,15.4,123.5,15,124,15z M120,15
		L120,15c0.5,0,1,0.5,1,1l0,0c0,0.6-0.5,1-1,1l0,0c-0.6,0-1-0.4-1-1C119,15.4,119.4,15,120,15z M115.9,15L115.9,15c0.5,0,1,0.5,1,1
		l0,0c0,0.6-0.5,1-1,1l0,0c-0.5,0-1-0.4-1-1C114.9,15.4,115.4,15,115.9,15z M111.9,15L111.9,15c0.5,0,1,0.5,1,1l0,0c0,0.6-0.5,1-1,1
		l0,0c-0.5,0-1-0.4-1-1C110.9,15.4,111.3,15,111.9,15z M107.8,15L107.8,15c0.5,0,1,0.5,1,1l0,0c0,0.6-0.5,1-1,1l0,0
		c-0.6,0-1-0.4-1-1C106.8,15.4,107.3,15,107.8,15z M103.8,15L103.8,15c0.6,0,1,0.5,1,1l0,0c0,0.6-0.4,1-1,1l0,0c-0.5,0-1-0.4-1-1
		C102.8,15.4,103.2,15,103.8,15z M99.7,15L99.7,15c0.3,0,0.5,0.1,0.7,0.3l0,0c0.4,0.4,0.4,1,0,1.4l0,0c-0.4,0.4-1,0.4-1.4,0l0,0
		c-0.4-0.4-0.4-1,0-1.4C99.2,15.1,99.5,15,99.7,15z"/>
</g>
</svg>
