<svg version="1.1" id="Ebene_1" xmlns="http://www.w3.org/2000/svg" xmlns:xlink="http://www.w3.org/1999/xlink" x="0" y="0" viewBox="0 0 125 32" xml:space="preserve"><style type="text/css">.st0{fill:#91b821}.st1,.st2{fill:none;stroke:#fff;stroke-width:2;stroke-linecap:round;stroke-linejoin:round}.st2{clip-path:url(#SVGID_2_);stroke-dasharray:0,3.857}.st3{stroke-dasharray:0,4.043}.st3,.st4{clip-path:url(#SVGID_2_);fill:none;stroke:#fff;stroke-width:2;stroke-linecap:round;stroke-linejoin:round}.st5{fill:#21b7d0}.st6{fill:#b7ff00}.st7{fill:#b8ff00}.st8{fill:none;stroke:#fff;stroke-width:2;stroke-linecap:round;stroke-linejoin:round;stroke-dasharray:0,4.043}</style><defs><path id="SVGID_1_" d="M0 0h125v32H0z"/></defs><clipPath id="SVGID_2_"><use xlink:href="#SVGID_1_" overflow="visible"/></clipPath><path class="st2" d="M3.7 28.3L29.6 2.4"/><path class="st3" d="M35 1h87"/><path class="st4" d="M1 31"/><path class="st0" d="M28.3 2.7c.3 0 .5.1.7.3.4.4.4 1 0 1.4-.4.4-1 .4-1.4 0-.4-.4-.4-1 0-1.4.2-.2.4-.3.7-.3zm-2.8 2.8c.3 0 .5.1.7.3.4.4.4 1 0 1.4-.4.4-1 .4-1.4 0-.4-.4-.4-1 0-1.4.2-.2.5-.3.7-.3zm-2.7 2.7c.2 0 .5.1.7.3.4.4.4 1 0 1.4-.4.4-1 .4-1.4 0-.4-.4-.4-1 0-1.4.2-.2.5-.3.7-.3zm-2.7 2.7c.3 0 .5.1.7.3.4.4.4 1 0 1.4-.4.4-1 .4-1.4 0-.4-.4-.4-1 0-1.4.2-.2.4-.3.7-.3zm-2.7 2.7c.3 0 .5.1.7.3.4.4.4 1 0 1.4-.4.4-1 .4-1.4 0-.4-.4-.4-1 0-1.4.1-.2.4-.3.7-.3zm-2.8 2.8c.2 0 .5.1.7.3.4.4.4 1 0 1.4-.4.4-1 .4-1.4 0-.4-.4-.4-1 0-1.4.2-.2.5-.3.7-.3zm-2.7 2.7c.3 0 .5.1.7.3.4.4.4 1 0 1.4-.4.4-1 .4-1.4 0-.4-.4-.4-1 0-1.4.2-.2.4-.3.7-.3zm-2.7 2.7c.3 0 .5.1.7.3.4.4.4 1 0 1.4-.4.4-1 .4-1.4 0-.4-.4-.4-1 0-1.4.2-.2.4-.3.7-.3zm-2.8 2.8c.3 0 .5.1.7.3.4.4.4 1 0 1.4-.4.4-1 .4-1.4 0-.4-.4-.4-1 0-1.4.2-.2.5-.3.7-.3zm-2.7 2.7c.2 0 .5.1.7.3.4.4.4 1 0 1.4-.4.4-1 .4-1.4 0-.4-.4-.4-1 0-1.4.2-.2.5-.3.7-.3zM120 0c.5 0 1 .5 1 1 0 .6-.5 1-1 1-.6 0-1-.4-1-1 0-.5.4-1 1-1zm-4.1 0c.6 0 1 .5 1 1 0 .6-.4 1-1 1-.5 0-1-.4-1-1 0-.5.4-1 1-1zm-4 0c.6 0 1 .5 1 1 0 .6-.4 1-1 1-.5 0-1-.4-1-1 0-.5.4-1 1-1zm-4.1 0c.6 0 1 .5 1 1 0 .6-.4 1-1 1s-1-.4-1-1c0-.5.5-1 1-1zm-4 0c.6 0 1 .5 1 1 0 .6-.4 1-1 1-.5 0-1-.4-1-1 0-.5.4-1 1-1zm-4.1 0c.6 0 1 .5 1 1 0 .6-.4 1-1 1-.5 0-1-.4-1-1 0-.5.5-1 1-1zm-4 0c.6 0 1 .5 1 1 0 .6-.4 1-1 1-.5 0-1-.4-1-1 0-.5.4-1 1-1zm-4.1 0c.6 0 1 .5 1 1 0 .6-.4 1-1 1s-1-.4-1-1c0-.5.5-1 1-1zm-4 0c.5 0 1 .5 1 1 0 .6-.5 1-1 1s-1-.4-1-1c0-.5.4-1 1-1zm-4 0c.5 0 1 .5 1 1 0 .6-.5 1-1 1s-1-.4-1-1c0-.5.4-1 1-1zm-4.1 0c.5 0 1 .5 1 1 0 .6-.5 1-1 1-.6 0-1-.4-1-1 0-.5.5-1 1-1zm-4 0c.6 0 1 .5 1 1 0 .6-.4 1-1 1-.5 0-1-.4-1-1 0-.5.4-1 1-1zm-4.1 0c.5 0 1 .5 1 1 0 .6-.5 1-1 1s-1-.4-1-1c0-.5.5-1 1-1zm-4 0c.5 0 1 .5 1 1 0 .6-.5 1-1 1-.6 0-1-.4-1-1 0-.5.4-1 1-1zm-4.1 0c.5 0 1 .5 1 1 0 .6-.5 1-1 1-.6 0-1-.4-1-1 0-.5.5-1 1-1zm-4 0c.5 0 1 .5 1 1 0 .6-.5 1-1 1s-1-.4-1-1c0-.5.5-1 1-1zm-4 0c.5 0 1 .5 1 1 0 .6-.5 1-1 1s-1-.4-1-1c0-.5.4-1 1-1zm-4.1 0c.5 0 1 .5 1 1 0 .6-.5 1-1 1-.6 0-1-.4-1-1 0-.5.5-1 1-1zm-4 0c.5 0 1 .5 1 1 0 .6-.5 1-1 1s-1-.4-1-1c0-.5.4-1 1-1zm-4.1 0c.5 0 1 .5 1 1 0 .6-.5 1-1 1s-1-.4-1-1c0-.5.5-1 1-1zm-4 0c.5 0 1 .5 1 1 0 .6-.5 1-1 1-.6 0-1-.4-1-1 0-.5.4-1 1-1zM35 0c.6 0 1 .5 1 1 0 .6-.4 1-1 1-.5 0-1-.4-1-1 0-.5.5-1 1-1zm-4 0c.3 0 .5.1.7.3.4.4.4 1 0 1.4-.4.4-1 .4-1.4 0-.4-.4-.4-1 0-1.4.2-.2.4-.3.7-.3zM1 30c.2 0 .5.1.7.3.4.4.4 1 0 1.4-.4.4-1 .4-1.4 0-.4-.4-.4-1 0-1.4.2-.2.4-.3.7-.3zM124 0c.5 0 1 .5 1 1 0 .6-.5 1-1 1-.6 0-1-.4-1-1 0-.5.4-1 1-1z"/></svg>