<svg version="1.1" id="Ebene_1" xmlns="http://www.w3.org/2000/svg" x="0" y="0" viewBox="0 0 125 32" xml:space="preserve"><style type="text/css">.st0{fill:#91b821}.st1,.st2{fill:none;stroke:#91b821;stroke-width:2;stroke-linecap:round;stroke-linejoin:round}.st2{clip-path:url(#SVGID_2_);stroke-dasharray:0,3.857}.st3{stroke-dasharray:0,4.043}.st3,.st4{clip-path:url(#SVGID_2_);fill:none;stroke:#91b821;stroke-width:2;stroke-linecap:round;stroke-linejoin:round}.st5{fill:#21b7d0}.st6{fill:#b7ff00}.st7{fill:#b8ff00}.st8{fill:none;stroke:#91b821;stroke-width:2;stroke-linecap:round;stroke-linejoin:round;stroke-dasharray:0,4.043}</style><path class="st0" d="M27.6 29c-.4-.4-.4-1 0-1.4.4-.4 1-.4 1.4 0 .4.4.4 1 0 1.4-.2.2-.5.3-.7.3-.3 0-.5-.1-.7-.3zm-2.8-2.7c-.4-.4-.4-1 0-1.4.4-.4 1-.4 1.4 0 .4.4.4 1 0 1.4-.2.2-.5.3-.7.3-.2-.1-.5-.2-.7-.3zm-2.7-2.8c-.4-.4-.4-1 0-1.4.4-.4 1-.4 1.4 0 .4.4.4 1 0 1.4-.2.2-.5.3-.7.3-.2 0-.5-.1-.7-.3zm-2.7-2.7c-.4-.4-.4-1 0-1.4.4-.4 1-.4 1.4 0 .4.4.4 1 0 1.4-.2.2-.5.3-.7.3-.3 0-.5-.1-.7-.3zm-2.7-2.7c-.4-.4-.4-1 0-1.4.4-.4 1-.4 1.4 0 .4.4.4 1 0 1.4-.2.2-.5.3-.7.3-.3 0-.6-.1-.7-.3zm-2.8-2.8c-.4-.4-.4-1 0-1.4.4-.4 1-.4 1.4 0 .4.4.4 1 0 1.4-.2.2-.5.3-.7.3-.2 0-.5-.1-.7-.3zm-2.7-2.7c-.4-.4-.4-1 0-1.4.4-.4 1-.4 1.4 0 .4.4.4 1 0 1.4-.2.2-.4.3-.7.3-.3 0-.5-.1-.7-.3zM8.5 9.9c-.4-.4-.4-1 0-1.4.4-.4 1-.4 1.4 0 .4.4.4 1 0 1.4-.2.2-.4.3-.7.3-.3 0-.5-.1-.7-.3zM5.8 7.2c-.4-.4-.4-1 0-1.4.4-.4 1-.4 1.4 0 .4.4.4 1 0 1.4-.2.2-.5.3-.8.3-.2 0-.5-.1-.6-.3zM3 4.4c-.4-.4-.4-1 0-1.4.4-.4 1-.4 1.4 0 .4.4.4 1 0 1.4-.2.2-.4.3-.7.3-.2 0-.5-.1-.7-.3zM119 31c0-.6.4-1 1-1 .5 0 1 .4 1 1 0 .5-.5 1-1 1-.6 0-1-.4-1-1zm-4.1 0c0-.6.5-1 1-1 .6 0 1 .4 1 1 0 .5-.4 1-1 1s-1-.4-1-1zm-4 0c0-.6.5-1 1-1 .6 0 1 .4 1 1 0 .5-.4 1-1 1s-1-.4-1-1zm-4.1 0c0-.6.4-1 1-1s1 .4 1 1c0 .5-.4 1-1 1-.5 0-1-.4-1-1zm-4 0c0-.6.5-1 1-1 .6 0 1 .4 1 1 0 .5-.4 1-1 1s-1-.4-1-1zm-4.1 0c0-.6.5-1 1-1 .6 0 1 .4 1 1 0 .5-.4 1-1 1-.5 0-1-.4-1-1zm-4 0c0-.6.5-1 1-1 .6 0 1 .4 1 1 0 .5-.4 1-1 1s-1-.4-1-1zm-4.1 0c0-.6.4-1 1-1s1 .4 1 1c0 .5-.4 1-1 1-.5 0-1-.4-1-1zm-4 0c0-.6.5-1 1-1s1 .4 1 1c0 .5-.5 1-1 1-.6 0-1-.4-1-1zm-4 0c0-.6.5-1 1-1s1 .4 1 1c0 .5-.5 1-1 1-.6 0-1-.4-1-1zm-4.1 0c0-.6.4-1 1-1 .5 0 1 .4 1 1 0 .5-.5 1-1 1s-1-.4-1-1zm-4 0c0-.6.5-1 1-1 .6 0 1 .4 1 1 0 .5-.4 1-1 1s-1-.4-1-1zm-4.1 0c0-.6.5-1 1-1s1 .4 1 1c0 .5-.5 1-1 1s-1-.4-1-1zm-4 0c0-.6.4-1 1-1 .5 0 1 .4 1 1 0 .5-.5 1-1 1-.6 0-1-.4-1-1zm-4.1 0c0-.6.5-1 1-1s1 .4 1 1c0 .5-.5 1-1 1s-1-.4-1-1zm-4 0c0-.6.5-1 1-1s1 .4 1 1c0 .5-.5 1-1 1s-1-.4-1-1zm-4 0c0-.6.5-1 1-1s1 .4 1 1c0 .5-.5 1-1 1-.6 0-1-.4-1-1zm-4.1 0c0-.6.4-1 1-1 .5 0 1 .4 1 1 0 .5-.5 1-1 1s-1-.4-1-1zm-4 0c0-.6.5-1 1-1s1 .4 1 1c0 .5-.5 1-1 1-.6 0-1-.4-1-1zm-4.1 0c0-.6.5-1 1-1s1 .4 1 1c0 .5-.5 1-1 1s-1-.4-1-1zm-4 0c0-.6.4-1 1-1 .5 0 1 .4 1 1 0 .5-.5 1-1 1-.6 0-1-.4-1-1zM34 31c0-.6.5-1 1-1 .6 0 1 .4 1 1 0 .5-.4 1-1 1-.5 0-1-.4-1-1zm-3.7.7c-.4-.4-.4-1 0-1.4.4-.4 1-.4 1.4 0 .4.4.4 1 0 1.4-.2.2-.4.3-.7.3-.3 0-.5-.1-.7-.3zm-30-30C-.1 1.3-.1.7.3.3c.4-.4 1-.4 1.4 0 .4.4.4 1 0 1.4-.2.2-.4.3-.7.3-.3 0-.5-.1-.7-.3zM123 31c0-.6.4-1 1-1 .5 0 1 .4 1 1 0 .5-.5 1-1 1-.6 0-1-.4-1-1z"/></svg>